# xmcd
#
# Track frame offsets: 
#        150
#        13454
#        28330
#        49469
#        61306
#        82922
#        99545
#        113743
#        128467
#        141897
#        156700
#        175759
#        185948
#        202581
#        223416
#
# Disc length: 3159 seconds
#
# Revision: 0
# Processed by: cddbd v1.5.2PL0 Copyright (c) Steve Scherf et al.
# Submitted via: ExactAudioCopy v1.0b4
#
DISCID=e00c550f
DTITLE=Dr. John - High Priest of Psychedelic Voodoo [CD1]
DYEAR=2015
DGENRE=Blues
TTITLE0=In The Night
TTITLE1=Tipitina
TTITLE2=Mean Cheatin Woman
TTITLE3=Bald Head
TTITLE4=Qualified
TTITLE5=Wash, Mama, Wash
TTITLE6=What Comes Around (Goes Around)
TTITLE7=Quitters Never Win
TTITLE8=Mama Roux
TTITLE9=A Little Closer To My Home
TTITLE10=Shoo Ra
TTITLE11=Woman Is The Root Of All Evil
TTITLE12=Danger Zone
TTITLE13=Just Like A Mirror
TTITLE14=Helping Hand
EXTD=
EXTT0=
EXTT1=
EXTT2=
EXTT3=
EXTT4=
EXTT5=
EXTT6=
EXTT7=
EXTT8=
EXTT9=
EXTT10=
EXTT11=
EXTT12=
EXTT13=
EXTT14=
PLAYORDER=
